<svg width="24" height="24" viewBox="0 0 24 24" fill="none" xmlns="http://www.w3.org/2000/svg">
<g clip-path="url(#clip0_389_75123)">
<path fill-rule="evenodd" clip-rule="evenodd" d="M2.57424 12.7075C2.39475 12.4296 2.24986 12.1889 2.14057 12C2.24986 11.8111 2.39475 11.5704 2.57424 11.2925C3.03526 10.5787 3.71799 9.6294 4.60436 8.68394C6.39534 6.77356 8.89933 5 11.9998 5C15.1003 5 17.6043 6.77356 19.3953 8.68394C20.2817 9.6294 20.9644 10.5787 21.4254 11.2925C21.6049 11.5704 21.7498 11.8111 21.8591 12C21.7498 12.1889 21.6049 12.4296 21.4254 12.7075C20.9644 13.4213 20.2817 14.3706 19.3953 15.3161C17.6043 17.2264 15.1003 19 11.9998 19C8.89933 19 6.39534 17.2264 4.60436 15.3161C3.71799 14.3706 3.03526 13.4213 2.57424 12.7075ZM23.8939 11.5521C23.8939 11.5521 24.0461 12.1426 23.8939 12.4479L23.8923 12.4511L23.8888 12.458L23.8775 12.4802C23.8679 12.4987 23.8545 12.5247 23.8371 12.5576C23.8023 12.6233 23.7518 12.7168 23.6859 12.834C23.554 13.0684 23.36 13.3985 23.1055 13.7925C22.5978 14.5787 21.843 15.6294 20.8544 16.6839C18.8953 18.7736 15.8993 21 11.9998 21C8.10032 21 5.1043 18.7736 3.14529 16.6839C2.15666 15.6294 1.40189 14.5787 0.89416 13.7925C0.639674 13.3985 0.445616 13.0684 0.313795 12.834C0.247847 12.7168 0.197364 12.6233 0.162577 12.5576C0.145181 12.5247 0.131699 12.4987 0.122162 12.4802L0.110814 12.458L0.107363 12.4511L0.106194 12.4488L0.105749 11.5521L0.107363 11.5489L0.110814 11.542L0.122162 11.5198C0.131699 11.5013 0.145181 11.4753 0.162577 11.4424C0.197364 11.3767 0.247847 11.2832 0.313795 11.166C0.445616 10.9316 0.639674 10.6015 0.89416 10.2075C1.40189 9.42131 2.15666 8.3706 3.14529 7.31606C5.1043 5.22644 8.10032 3 11.9998 3C15.8993 3 18.8953 5.22644 20.8544 7.31606C21.843 8.3706 22.5978 9.42131 23.1055 10.2075C23.36 10.6015 23.554 10.9316 23.6859 11.166C23.7518 11.2832 23.8023 11.3767 23.8371 11.4424C23.8545 11.4753 23.8679 11.5013 23.8775 11.5198L23.8888 11.542L23.8923 11.5489L23.8939 11.5521ZM23.8939 12.4479C24.0347 12.1664 24.0347 11.8336 23.8939 11.5521C23.8939 11.5521 24.0461 12.1426 23.8939 12.4479ZM0.105397 12.4472L0.105573 11.9996L0.105749 11.5521C-0.0350147 11.8336 -0.0353668 12.1657 0.105397 12.4472ZM11.9998 8C10.939 8 9.92154 8.42143 9.1714 9.17157C8.42125 9.92172 7.99982 10.9391 7.99982 12C7.99982 13.0609 8.42125 14.0783 9.1714 14.8284C9.92154 15.5786 10.939 16 11.9998 16C13.0607 16 14.0781 15.5786 14.8283 14.8284C15.5784 14.0783 15.9998 13.0609 15.9998 12C15.9998 10.9391 15.5784 9.92172 14.8283 9.17157C14.0781 8.42143 13.0607 8 11.9998 8ZM13.414 13.4142C13.039 13.7893 12.5303 14 11.9998 14C11.4694 14 10.9607 13.7893 10.5856 13.4142C10.2105 13.0391 9.99982 12.5304 9.99982 12C9.99982 11.4696 10.2105 10.9609 10.5856 10.5858C10.9607 10.2107 11.4694 10 11.9998 10C12.5303 10 13.039 10.2107 13.414 10.5858C13.7891 10.9609 13.9998 11.4696 13.9998 12C13.9998 12.5304 13.7891 13.0391 13.414 13.4142Z" fill="#757575"/>
</g>
<defs>
<clipPath id="clip0_389_75123">
<rect width="24" height="24" fill="white"/>
</clipPath>
</defs>
</svg>
