<svg viewBox="0 0 24 24"  xmlns="http://www.w3.org/2000/svg">
<g id="24px / IconChartLineLarge">
<path id="Union" fill-rule="evenodd" clip-rule="evenodd" d="M20.095 3.5752L21.905 4.425L16.762 15.373C16.6929 15.52 16.589 15.6479 16.4593 15.7457C16.3296 15.8435 16.1781 15.9082 16.0178 15.9343C15.8575 15.9604 15.6933 15.9471 15.5393 15.8954C15.3853 15.8438 15.2462 15.7554 15.134 15.638L12.042 12.402L9.45501 17.768C9.38966 17.9033 9.29466 18.0221 9.17708 18.1156C9.0595 18.2092 8.92235 18.275 8.77583 18.3082C8.62931 18.3415 8.47719 18.3413 8.33075 18.3076C8.18432 18.274 8.04735 18.2078 7.93001 18.114L5.90601 16.495L3.89101 20.454L2.10901 19.547L4.68001 14.494C4.7474 14.3617 4.84341 14.246 4.96108 14.1554C5.07875 14.0648 5.21513 14.0015 5.3603 13.9702C5.50547 13.9389 5.65579 13.9403 5.80035 13.9743C5.94491 14.0084 6.08007 14.0742 6.19601 14.167L8.19901 15.769L10.868 10.233C10.9381 10.0874 11.0425 9.9609 11.1722 9.86444C11.3019 9.76798 11.453 9.70439 11.6127 9.67913C11.7723 9.65386 11.9357 9.66767 12.0889 9.71938C12.242 9.77108 12.3803 9.85913 12.492 9.976L15.572 13.202L20.095 3.5752Z" fill="#2C2A29"/>
</g>
</svg>
