<svg viewBox="0 0 24 24" xmlns="http://www.w3.org/2000/svg">
<g id="24px / IconDownloadLarge">
<path id="Union" fill-rule="evenodd" clip-rule="evenodd" d="M11 3C11.5523 3 13 3.00011 13 3.00011V12.5859L16.2929 9.293C16.6834 9.68353 17.7071 10.7072 17.7071 10.7072L12.7071 15.7072C12.3166 16.0977 11.6834 16.0977 11.2929 15.7072L6.29289 10.7072C6.68342 10.3167 7.70711 9.293 7.70711 9.293L11 12.5859V3ZM2.00004 15.0001C2.55232 15.0001 4 15.0001 4 15.0001V19.0001C4 19.2653 4.10536 19.5197 4.29289 19.7072C4.48043 19.8948 4.73478 20.0001 5 20.0001H19C19.2652 20.0001 19.5196 19.8948 19.7071 19.7072C19.8946 19.5197 20 19.2653 20 19.0001V15.0001C20 15.0001 21.4477 15.0001 22 15.0001V19.0001C22 19.7958 21.6839 20.5588 21.1213 21.1214C20.5587 21.684 19.7957 22.0001 19 22.0001H5C4.20435 22.0001 3.44129 21.684 2.87868 21.1214C2.31607 20.5588 2 19.7958 2 19.0001L2.00004 15.0001Z" fill="#2C2A29"/>
</g>
</svg>
