<svg viewBox="0 0 20 20"  xmlns="http://www.w3.org/2000/svg">
<path fill-rule="evenodd" clip-rule="evenodd" d="M3 2C2.73478 2 2.48043 2.10536 2.29289 2.29289C2.10536 2.48043 2 2.73478 2 3V17C2 17.2652 2.10536 17.5196 2.29289 17.7071C2.48043 17.8946 2.73478 18 3 18H7V20H3C2.20435 20 1.44129 19.6839 0.87868 19.1213C0.31607 18.5587 0 17.7957 0 17V3C0 2.20435 0.31607 1.44129 0.87868 0.87868C1.44129 0.31607 2.20435 0 3 0H7V2H3ZM14.7071 4.29289L19.7071 9.29289C20.0976 9.68342 20.0976 10.3166 19.7071 10.7071L14.7071 15.7071L13.2929 14.2929L16.5858 11H7V9H16.5858L13.2929 5.70711L14.7071 4.29289Z" fill="#2C2A29"/>
</svg>
