<svg width="203" height="46" viewBox="0 0 203 46" fill="none" xmlns="http://www.w3.org/2000/svg">
<g id="Group 1">
<path id="Vector" d="M0 32.1183C3.51477 40.2768 11.6961 45.9999 21.2308 45.9999C17.716 37.8379 9.53467 32.1183 0 32.1183Z" fill="#00BE64"/>
<path id="Vector_2" d="M21.2305 46C28.1274 46 34.0658 41.8683 36.7453 35.929C29.85 35.929 23.9117 40.0606 21.2305 46Z" fill="#00BE64"/>
<path id="Vector_3" fill-rule="evenodd" clip-rule="evenodd" d="M21.0947 34.568C30.6401 34.568 38.3786 26.8313 38.3786 17.2839C38.3786 7.74028 30.6401 0 21.0947 0C11.5473 0 3.81055 7.74028 3.81055 17.2839C3.81055 26.8313 11.5473 34.568 21.0947 34.568ZM21.0947 25.9272C25.8665 25.9272 29.7356 22.0579 29.7356 17.2843C29.7356 12.5106 25.8665 8.64311 21.0947 8.64311C16.3209 8.64311 12.4516 12.5106 12.4516 17.2843C12.4516 22.0579 16.3209 25.9272 21.0947 25.9272Z" fill="#FFB900"/>
<path id="Vector_4" d="M132.148 17.1172H139.359V45.2124H132.148V34.2707H119.556V45.2124H112.345V17.1172H119.556V27.4713H132.148V17.1172ZM142.755 24.0862H151.733V45.2124H158.944V24.0862H167.814V17.1172H142.755V24.0862ZM202.78 39.1016V45.0736C201.551 45.692 200.015 46.0001 198.222 46.0001C194.476 46.0001 192.59 44.3616 191.834 41.7226L191.714 41.8993C189.533 44.6519 186.515 46.0001 182.602 46.0001C178.854 46.0001 175.667 44.596 172.985 41.7298C170.358 38.8638 169.017 35.3234 169.017 31.1649C169.017 27.0099 170.358 23.5254 172.985 20.6594C175.667 17.795 178.854 16.3314 182.602 16.3314C186.341 16.3314 189.264 17.5679 191.419 20.0861V17.119H198.63V36.9927C198.63 38.6906 199.399 39.565 200.936 39.565C201.655 39.5632 202.269 39.4098 202.78 39.1016ZM191.714 31.163C191.714 28.8629 190.987 26.9522 189.478 25.4902C188.025 23.9743 186.179 23.2425 183.943 23.2425C181.707 23.2425 179.863 23.9725 178.408 25.4902C176.955 26.9522 176.229 28.8629 176.229 31.163C176.229 33.4686 176.955 35.3793 178.408 36.8972C179.863 38.3571 181.707 39.0872 183.943 39.0872C186.179 39.0872 188.025 38.3571 189.478 36.8972C190.987 35.3793 191.714 33.4686 191.714 31.163ZM52.9361 17.1172L52.7209 27.6733C52.6707 31.9472 52.5164 34.058 51.9013 36.4753C51.3381 38.7933 50.2621 39.4478 48.5746 39.4478C48.0096 39.4478 47.4985 39.3955 47.0879 39.2404V45.2124C47.6509 45.5207 48.5745 45.6739 49.8031 45.6739C54.8729 45.5207 57.3317 43.1159 58.5619 38.7915C59.4317 35.702 59.586 33.3333 59.7402 29.7824L59.9015 24.0842H68.8559V45.2107H76.067V17.1155H52.9361V17.1172ZM87.6666 33.0613C88.4431 37.8561 92.2253 39.4261 96.0632 39.4261C98.6061 39.4261 101.271 38.4274 102.91 36.9332L107.358 41.4307C104.702 44.3868 101.004 46.0001 95.9501 46.0001C88.8753 46.0001 80.3406 41.802 80.3406 31.1649C80.3406 20.5297 88.5597 16.3314 95.5395 16.3314C104.368 16.3314 108.021 20.5008 108.021 25.1748C108.023 32.8161 98.3604 36.3456 87.6666 33.0613ZM100.193 26.0022C100.193 23.8229 98.0484 22.8495 95.6453 22.8495C91.9743 22.8495 88.7929 24.4069 87.8262 28.4159C95.3063 30.5881 100.193 28.9675 100.193 26.0022Z" fill="#003C96"/>
</g>
</svg>
