<svg width="237" height="84" viewBox="0 0 237 84" fill="none" xmlns="http://www.w3.org/2000/svg">
<path d="M24 50.637C27.2075 58.4907 34.6737 64 43.375 64C40.1674 56.1429 32.7012 50.637 24 50.637Z" fill="#00BE64"/>
<path d="M43.375 64C49.6263 64 55.0089 60.1223 57.4375 54.5482C51.1877 54.5482 45.8052 58.4258 43.375 64Z" fill="#00BE64"/>
<path fill-rule="evenodd" clip-rule="evenodd" d="M43.4376 53C52.2739 53 59.4375 45.8381 59.4375 36.9999C59.4375 28.1653 52.2739 21 43.4376 21C34.5995 21 27.4375 28.1653 27.4375 36.9999C27.4375 45.8381 34.5995 53 43.4376 53ZM43.4376 45.0011C47.8549 45.0011 51.4366 41.4192 51.4366 37.0002C51.4366 32.5812 47.8549 29.001 43.4376 29.001C39.0184 29.001 35.4366 32.5812 35.4366 37.0002C35.4366 41.4192 39.0184 45.0011 43.4376 45.0011Z" fill="#FFB900"/>
<path d="M147.672 36.7416H154.342V63.2567H147.672V52.9304H136.026V63.2567H129.357V36.7416H136.026V46.5134H147.672V36.7416ZM157.483 43.3186H165.787V63.2567H172.456V43.3186H180.659V36.7416H157.483V43.3186ZM213 57.4895V63.1256C211.863 63.7093 210.443 64 208.784 64C205.319 64 203.575 62.4537 202.876 59.9631L202.765 60.1299C200.747 62.7277 197.956 64 194.337 64C190.871 64 187.923 62.6749 185.443 59.9699C183.013 57.2651 181.772 53.9238 181.772 49.9992C181.772 46.0779 183.013 42.7894 185.443 40.0846C187.923 37.3813 190.871 36 194.337 36C197.796 36 200.498 37.167 202.492 39.5435V36.7433H209.162V55.4992C209.162 57.1017 209.873 57.9268 211.295 57.9268C211.959 57.9251 212.528 57.7804 213 57.4895ZM202.765 49.9974C202.765 47.8267 202.093 46.0234 200.696 44.6437C199.353 43.2131 197.646 42.5223 195.577 42.5223C193.509 42.5223 191.804 43.2114 190.458 44.6437C189.114 46.0234 188.442 47.8267 188.442 49.9974C188.442 52.1733 189.114 53.9766 190.458 55.4091C191.804 56.7869 193.509 57.476 195.577 57.476C197.646 57.476 199.353 56.7869 200.696 55.4091C202.093 53.9766 202.765 52.1733 202.765 49.9974ZM74.409 36.7416L74.21 46.704C74.1635 50.7375 74.0209 52.7296 73.452 55.0109C72.931 57.1986 71.9359 57.8162 70.3751 57.8162C69.8525 57.8162 69.3798 57.7669 69 57.6206V63.2567C69.5208 63.5476 70.3749 63.6922 71.5113 63.6922C76.2004 63.5476 78.4745 61.2781 79.6123 57.1969C80.4168 54.2812 80.5595 52.0457 80.7021 48.6944L80.8513 43.3167H89.1333V63.255H95.8028V36.7399H74.409V36.7416ZM106.531 51.7889C107.249 56.3141 110.748 57.7958 114.297 57.7958C116.649 57.7958 119.114 56.8532 120.63 55.4431L124.744 59.6876C122.287 62.4775 118.867 64 114.193 64C107.649 64 99.7555 60.038 99.7555 49.9992C99.7555 39.9621 107.357 36 113.813 36C121.979 36 125.357 39.9349 125.357 44.346C125.359 51.5576 116.422 54.8885 106.531 51.7889ZM118.117 45.1269C118.117 43.0701 116.133 42.1515 113.911 42.1515C110.515 42.1515 107.573 43.6213 106.679 47.4048C113.597 49.4548 118.117 47.9254 118.117 45.1269Z" fill="white"/>
</svg>
