<svg width="740" height="258" viewBox="0 0 740 258" fill="none" xmlns="http://www.w3.org/2000/svg">
<path d="M75 142.607C85.2641 166.347 109.156 183 137 183C126.736 159.25 102.844 142.607 75 142.607Z" fill="#00BE64"/>
<path d="M137 183C157.004 183 174.228 171.279 182 154.43C162.001 154.43 144.777 166.151 137 183Z" fill="#00BE64"/>
<path fill-rule="evenodd" clip-rule="evenodd" d="M136.5 150.489C164.39 150.489 187 127.998 187 100.244C187 72.5009 164.39 50 136.5 50C108.605 50 86 72.5009 86 100.244C86 127.998 108.605 150.489 136.5 150.489ZM136.5 125.37C150.442 125.37 161.747 114.122 161.747 100.245C161.747 86.3683 150.442 75.1254 136.5 75.1254C122.552 75.1254 111.247 86.3683 111.247 100.245C111.247 114.122 122.552 125.37 136.5 125.37Z" fill="#FFB900"/>
<path d="M460.582 99.2779H481.656V180.717H460.582V149H423.784V180.717H402.71V99.2779H423.784V129.291H460.582V99.2779ZM491.582 119.479H517.819V180.717H538.893V119.479H564.813V99.2779H491.582V119.479ZM667 163.003V180.314C663.408 182.107 658.92 183 653.678 183C642.73 183 637.219 178.251 635.01 170.601L634.66 171.113C628.285 179.092 619.466 183 608.03 183C597.078 183 587.765 178.93 579.926 170.622C572.249 162.314 568.329 152.052 568.329 139.998C568.329 127.953 572.249 117.853 579.926 109.545C587.765 101.242 597.078 97 608.03 97C618.958 97 627.499 100.584 633.797 107.884V99.2831H654.872V156.89C654.872 161.812 657.119 164.347 661.612 164.347C663.711 164.342 665.507 163.897 667 163.003ZM634.66 139.992C634.66 133.325 632.536 127.786 628.124 123.549C623.878 119.154 618.485 117.033 611.949 117.033C605.414 117.033 600.025 119.149 595.774 123.549C591.528 127.786 589.405 133.325 589.405 139.992C589.405 146.675 591.528 152.214 595.774 156.614C600.025 160.846 605.414 162.962 611.949 162.962C618.485 162.962 623.878 160.846 628.124 156.614C632.536 152.214 634.66 146.675 634.66 139.992ZM229.091 99.2779L228.462 129.877C228.315 142.265 227.865 148.384 226.067 155.391C224.421 162.11 221.277 164.007 216.345 164.007C214.694 164.007 213.2 163.855 212 163.406V180.717C213.645 181.61 216.344 182.055 219.935 182.055C234.751 181.61 241.937 174.64 245.532 162.105C248.074 153.149 248.525 146.283 248.975 135.99L249.447 119.473H275.616V180.712H296.689V99.2727H229.091V99.2779ZM330.589 145.495C332.858 159.393 343.911 163.944 355.127 163.944C362.558 163.944 370.347 161.049 375.137 156.718L388.135 169.755C380.373 178.324 369.566 183 354.797 183C334.121 183 309.179 170.831 309.179 139.998C309.179 109.169 333.199 97 353.597 97C379.398 97 390.074 109.086 390.074 122.634C390.079 144.784 361.84 155.015 330.589 145.495ZM367.197 125.033C367.197 118.715 360.929 115.894 353.906 115.894C343.177 115.894 333.88 120.408 331.055 132.029C352.915 138.326 367.197 133.628 367.197 125.033Z" fill="white"/>
</svg>
