<svg width="24" height="24" viewBox="0 0 24 24" fill="none" xmlns="http://www.w3.org/2000/svg">
<g id="24px / tuiIconHideLarge" clip-path="url(#clip0_389_75167)">
<path id="Union" fill-rule="evenodd" clip-rule="evenodd" d="M0.292893 0.292893C0.683418 -0.0976311 1.31658 -0.0976311 1.70711 0.292893L18.6471 17.2329L23.7071 22.2929C24.0976 22.6834 24.0976 23.3166 23.7071 23.7071C23.3166 24.0976 22.6834 24.0976 22.2929 23.7071L17.8261 19.2403C16.0962 20.3536 14.0848 20.966 12.0163 20.9999L12 21C8.10049 21 5.10448 18.7736 3.14546 16.6839C2.15683 15.6294 1.40207 14.5787 0.894336 13.7925C0.63985 13.3985 0.445792 13.0684 0.313971 12.834C0.248023 12.7168 0.19754 12.6233 0.162753 12.5576C0.145357 12.5247 0.131875 12.4987 0.122338 12.4802L0.11099 12.458L0.107539 12.4511L0.10637 12.4488C0.105243 12.4466 0.105573 12.4472 0.105573 12.4472C-0.0397387 12.1566 -0.0347895 11.8135 0.118844 11.5272C1.25035 9.4185 2.7597 7.53966 4.56848 5.98269L0.292893 1.70711C-0.097631 1.31658 -0.097631 0.683417 0.292893 0.292893ZM5.9871 7.40131C4.45031 8.70137 3.14935 10.2582 2.14257 12.0032C2.25165 12.1915 2.39592 12.4311 2.57441 12.7075C3.03543 13.4213 3.71817 14.3706 4.60454 15.3161C6.39395 17.2248 8.89512 18.9969 11.9918 19C13.5373 18.9733 15.0437 18.5524 16.3714 17.7856L14.0488 15.463C12.267 16.5678 9.79005 16.1033 8.58772 14.2835C7.71625 12.9644 7.73675 11.2513 8.53883 9.95305L5.9871 7.40131ZM10.0357 11.4499C9.85312 12.0195 9.91725 12.6676 10.2564 13.181C10.7564 13.9378 11.7265 14.2193 12.5495 13.9637L10.0357 11.4499ZM17.0856 6.70102C14.9633 5.29968 12.557 4.6451 10.1279 5.21368C9.59016 5.33955 9.05219 5.00566 8.92632 4.46791C8.80045 3.93016 9.13434 3.39219 9.67209 3.26632C12.7656 2.54221 15.7301 3.40934 18.1876 5.03203C20.6382 6.65016 22.6448 9.0535 23.8944 11.5528C24.0395 11.8429 24.0348 12.1853 23.8819 12.4714C23.2421 13.6684 22.4791 14.7954 21.6051 15.8339C21.2495 16.2564 20.6187 16.3107 20.1961 15.9551C19.7736 15.5995 19.7193 14.9687 20.0749 14.5461C20.7468 13.7476 21.3457 12.8909 21.8646 11.9862C20.7474 9.93812 19.0667 8.00914 17.0856 6.70102Z" fill="#757575"/>
</g>
<defs>
<clipPath id="clip0_389_75167">
<rect width="24" height="24" fill="white"/>
</clipPath>
</defs>
</svg>
